<?xml version="1.0" encoding="UTF-8"?>
<svg id="Capa_2" data-name="Capa 2" xmlns="http://www.w3.org/2000/svg" viewBox="0 0 217.97 59.63">
  <defs>
    <style>
      .cls-1 {
        fill: #0075ff;
      }

      .cls-2 {
        letter-spacing: -.03em;
      }

      .cls-3 {
        letter-spacing: -.02em;
      }

      .cls-4 {
        stroke: #0075ff;
        stroke-miterlimit: 10;
        stroke-width: 2.9px;
      }

      .cls-4, .cls-5 {
        fill: #fff;
      }

      .cls-5 {
        font-family: Mont-Heavy, Mont;
        font-size: 25.12px;
        font-weight: 800;
      }
    </style>
  </defs>
  <g id="Capa_1-2" data-name="Capa 1">
    <g>
      <path class="cls-1" d="m6.69,0h207.59v36.88c0,3.69-3,6.69-6.69,6.69H0V6.69C0,3,3,0,6.69,0Z"/>
      <text class="cls-5" transform="translate(19.76 30.92)"><tspan x="0" y="0">¡CLIC</tspan><tspan class="cls-3" x="68.7" y="0"> </tspan><tspan class="cls-2" x="73.55" y="0">A</tspan><tspan x="91.41" y="0">QUÍ!</tspan></text>
      <path class="cls-4" d="m177.5,33.89c3.72-.89,6.44.67,8.92,2.57-1.12-4.72-2.25-9.45-3.37-14.17-.49-2.06-1.85-4.52-1.17-6.72.68-2.23,3.8-3.38,6.13-2.62,2.71.88,2.99,4.09,3.45,6.23.56,2.63,1.03,5.27,1.65,7.89,1.63-2.45,6.8-1.94,7.68.43,2.01-3,6.18-1.35,7.12.91.69-1.02,3.39-.5,4.19-.1,1.55.77,2.34,2.3,2.84,3.71,1.01,2.83.98,6.01,1.29,8.99.32,3.01.53,6.19-.2,9.25-.73,3.04-3.37,4.58-6.69,5.72-3.99,1.37-8.09,2.1-12.27,2.21-4.96.13-7.16-2.61-9.36-5.84-2.4-3.51-4.93-6.94-7.97-10.06-1.86-1.92-8.8-6.81-2.24-8.37"/>
    </g>
  </g>
</svg>