<?xml version="1.0" encoding="utf-8"?>
<svg viewBox="75.439 380.88 577.391 126.245" xmlns="http://www.w3.org/2000/svg">
  <defs>
    <style type="text/css">
	.st0{fill:#8D41F1;}
	.st1{fill:#FFFFFF;}
	.st2{fill:#26DCC2;}
	.st3{fill:#535353;}
	.st4{fill:#F3B900;}
	.st5{fill:#0847FD;}
	.st6{opacity:0.45;}
	.st7{clip-path:url(#SVGID_00000131349496370738053690000017657704436648845234_);}
	.st8{clip-path:url(#SVGID_00000183941691822175144330000010508703845771090338_);}
	.st9{filter:url(#Adobe_OpacityMaskFilter);}
	.st10{fill:url(#SVGID_00000160169768430641546560000011017630667665643655_);}
	.st11{mask:url(#SVGID_00000145767313976523942940000012358161721397309087_);fill-rule:evenodd;clip-rule:evenodd;fill:#26DCC2;}
	.st12{filter:url(#Adobe_OpacityMaskFilter_00000032638510943997913260000009857468030609556119_);}
	.st13{fill:url(#SVGID_00000076575586538048235530000012589645655093077686_);}
	.st14{mask:url(#SVGID_00000033366262052006632170000006758845293637987518_);fill-rule:evenodd;clip-rule:evenodd;fill:#3D74FF;}
	.st15{filter:url(#Adobe_OpacityMaskFilter_00000163071525920600901750000006746468128981477264_);}
	.st16{fill:url(#SVGID_00000145049424544933837060000016401735014907835010_);}
	.st17{mask:url(#SVGID_00000006698905384359439310000014034467572916980637_);fill-rule:evenodd;clip-rule:evenodd;fill:#0022B9;}
	.st18{filter:url(#Adobe_OpacityMaskFilter_00000015345083784249448840000004561062052022502846_);}
	.st19{fill:url(#SVGID_00000017489190215490198080000006990791927802333593_);}
	.st20{mask:url(#SVGID_00000070089116489269767790000011409541003096397208_);fill-rule:evenodd;clip-rule:evenodd;fill:#3D74FF;}
	.st21{filter:url(#Adobe_OpacityMaskFilter_00000170238428599699308780000002835450138895299254_);}
	.st22{fill:url(#SVGID_00000127760244033202928680000003183005645256001926_);}
	.st23{mask:url(#SVGID_00000140735394502710147380000001093568043691211936_);fill-rule:evenodd;clip-rule:evenodd;fill:#002CF2;}
	.st24{opacity:0.25;}
	.st25{fill:#00D3AE;}
	.st26{fill:#975CFA;}
	.st27{fill:#FACC00;}
	.st28{fill:#F8D441;}
	.st29{fill:#002CF2;}
	.st30{opacity:0.25;fill:#0847FD;}
	.st31{opacity:0.85;fill:url(#SVGID_00000128447147874659533300000013383337614320756622_);}
	.st32{fill-rule:evenodd;clip-rule:evenodd;fill:#FFFFFF;}
	.st33{fill:#FDD703;}
	.st34{fill:#61EACF;}
	.st35{fill:#3D74FF;}
	.st36{opacity:0.85;}
	.st37{fill:none;stroke:#26DCC2;stroke-miterlimit:10;}
	.st38{fill:#FADB77;}
	.st39{fill:#668BFF;}
	.st40{fill:#7E52DD;}
	.st41{opacity:0.25;fill:#FFFFFF;}
	.st42{fill:#00BF94;}
	.st43{fill:#8AEAD2;}
	.st44{fill:#1454F1;}
	.st45{fill:none;stroke:#FFFFFF;stroke-miterlimit:10;stroke-dasharray:3.0047,3.0047;}
	.st46{fill:none;stroke:#FFFFFF;stroke-miterlimit:10;stroke-dasharray:3;}
	.st47{fill:none;stroke:#668BFF;stroke-miterlimit:10;stroke-dasharray:3;}
	.st48{fill:#26260A;}
	.st49{fill:#F6A18A;}
	.st50{fill:#FF737D;}
	.st51{fill:#C7C7C7;}
	.st52{fill-rule:evenodd;clip-rule:evenodd;fill:#0847FD;}
	.st53{clip-path:url(#SVGID_00000052784939231379146460000014550204297514432389_);fill:#0847FD;}
	.st54{opacity:0.45;clip-path:url(#SVGID_00000052784939231379146460000014550204297514432389_);}
	.st55{clip-path:url(#SVGID_00000126314125059783649550000016003051837306827942_);}
	.st56{clip-path:url(#SVGID_00000163031189977217648940000011878270395033076357_);}
	.st57{filter:url(#Adobe_OpacityMaskFilter_00000149371584487952074900000007003945079495060876_);}
	.st58{fill:url(#SVGID_00000089567246508396067830000013134699783623549072_);}
	.st59{mask:url(#SVGID_00000072242812916128450380000005186056321028945062_);fill-rule:evenodd;clip-rule:evenodd;fill:#26DCC2;}
	.st60{filter:url(#Adobe_OpacityMaskFilter_00000013889028748148217680000003783022121263733422_);}
	.st61{fill:url(#SVGID_00000074422498415657190300000005935824761285187212_);}
	.st62{mask:url(#SVGID_00000129896263763048081390000001993224511139509689_);fill-rule:evenodd;clip-rule:evenodd;fill:#3D74FF;}
	.st63{filter:url(#Adobe_OpacityMaskFilter_00000029745424986920090930000005670016069236208783_);}
	.st64{fill:url(#SVGID_00000088818455543495074350000003359872248351032971_);}
	.st65{mask:url(#SVGID_00000173151555732843456800000013687579426413302166_);fill-rule:evenodd;clip-rule:evenodd;fill:#0022B9;}
	.st66{filter:url(#Adobe_OpacityMaskFilter_00000167396979153258815630000012041268565171721120_);}
	.st67{fill:url(#SVGID_00000052786266163332606600000014686303342093276291_);}
	.st68{mask:url(#SVGID_00000174568040765289995940000017820545084347215799_);fill-rule:evenodd;clip-rule:evenodd;fill:#3D74FF;}
	.st69{filter:url(#Adobe_OpacityMaskFilter_00000139290971905510451600000005608902197778706319_);}
	.st70{fill:url(#SVGID_00000023246613408853454750000003825401540045813658_);}
	.st71{mask:url(#SVGID_00000129179505343346541230000012742052907431777447_);fill-rule:evenodd;clip-rule:evenodd;fill:#002CF2;}
	.st72{opacity:0.25;clip-path:url(#SVGID_00000052784939231379146460000014550204297514432389_);}
	.st73{opacity:0.25;clip-path:url(#SVGID_00000052784939231379146460000014550204297514432389_);fill:#0847FD;}
	.st74{clip-path:url(#SVGID_00000052784939231379146460000014550204297514432389_);}
	.st75{font-family:'Mont-Regular';}
	.st76{font-size:68.9117px;}
	.st77{letter-spacing:-3;}
	.st78{font-family:'Mont-Heavy';}
	.st79{font-family:'Mont-Bold';}
	.st80{font-size:16.9504px;}
	.st81{font-size:32.6027px;}
	.st82{opacity:0.85;clip-path:url(#SVGID_00000052784939231379146460000014550204297514432389_);}
	.st83{font-family:'Mont-Book';}
	.st84{font-size:12px;}
	.st85{clip-path:url(#SVGID_00000052784939231379146460000014550204297514432389_);fill:#FFFFFF;}
	.st86{clip-path:url(#SVGID_00000052784939231379146460000014550204297514432389_);fill:#975CFA;}
	.st87{clip-path:url(#SVGID_00000052784939231379146460000014550204297514432389_);fill:#F8D441;}
	.st88{font-size:17.4792px;}
	.st89{fill:none;}
	.st90{font-size:20px;}
	.st91{fill:#2F48EE;}
	.st92{letter-spacing:1;}
	.st93{font-size:14px;}
	.st94{fill:none;stroke:#0847FD;stroke-miterlimit:10;}
	.st95{clip-path:url(#SVGID_00000087370936569732169570000010705876368435605892_);}
	
		.st96{clip-path:url(#SVGID_00000170245089495174020070000010801103414622705087_);fill:url(#SVGID_00000165950831877767350440000018066043650346395827_);}
	
		.st97{clip-path:url(#SVGID_00000170245089495174020070000010801103414622705087_);fill:url(#SVGID_00000001656080057985288950000005769103388251315383_);}
	
		.st98{clip-path:url(#SVGID_00000170245089495174020070000010801103414622705087_);fill:url(#SVGID_00000165917380425608895320000005658058520317787818_);}
	
		.st99{clip-path:url(#SVGID_00000170245089495174020070000010801103414622705087_);fill:url(#SVGID_00000023249136701361870570000007666922128178347660_);}
	
		.st100{clip-path:url(#SVGID_00000170245089495174020070000010801103414622705087_);fill:url(#SVGID_00000181800675353792055900000016936559644745346200_);}
	
		.st101{clip-path:url(#SVGID_00000170245089495174020070000010801103414622705087_);fill:url(#SVGID_00000083806217871277440530000009385188220726784162_);}
	
		.st102{opacity:0.5;clip-path:url(#SVGID_00000087370936569732169570000010705876368435605892_);fill:url(#SVGID_00000048485419471928875540000016736040268763163282_);}
	
		.st103{clip-path:url(#SVGID_00000087370936569732169570000010705876368435605892_);fill:url(#SVGID_00000037681591865895173280000013376112701785502891_);}
	
		.st104{clip-path:url(#SVGID_00000087370936569732169570000010705876368435605892_);fill:none;stroke:#535353;stroke-miterlimit:10;}
	.st105{opacity:0.35;fill:#3D74FF;}
	.st106{fill:url(#SVGID_00000075124225725102689310000016245138049029026982_);}
	
		.st107{clip-path:url(#SVGID_00000087370936569732169570000010705876368435605892_);fill:none;stroke:#00BF94;stroke-width:3;stroke-miterlimit:10;}
	.st108{clip-path:url(#SVGID_00000087370936569732169570000010705876368435605892_);fill:#00BF94;}
	.st109{clip-path:url(#SVGID_00000087370936569732169570000010705876368435605892_);fill:#0847FD;}
	
		.st110{clip-path:url(#SVGID_00000087370936569732169570000010705876368435605892_);fill:none;stroke:#8D41F1;stroke-width:3;stroke-miterlimit:10;}
	.st111{clip-path:url(#SVGID_00000087370936569732169570000010705876368435605892_);fill:#975CFA;}
	.st112{clip-path:url(#SVGID_00000087370936569732169570000010705876368435605892_);fill:#FFFFFF;}
	.st113{clip-path:url(#SVGID_00000087370936569732169570000010705876368435605892_);fill:#8D41F1;}
	
		.st114{clip-path:url(#SVGID_00000087370936569732169570000010705876368435605892_);fill:none;stroke:#F3B900;stroke-width:3;stroke-miterlimit:10;}
	.st115{clip-path:url(#SVGID_00000087370936569732169570000010705876368435605892_);fill:#3D74FF;}
	.st116{clip-path:url(#SVGID_00000087370936569732169570000010705876368435605892_);fill:#F3B900;}
	
		.st117{clip-path:url(#SVGID_00000087370936569732169570000010705876368435605892_);fill:none;stroke:#0847FD;stroke-width:3;stroke-miterlimit:10;}
	.st118{clip-path:url(#SVGID_00000087370936569732169570000010705876368435605892_);fill:#002CF2;}
</style>
  </defs>
  <clipPath id="SVGID_00000063602917595011964140000013902313161278727094_">
    <rect width="1920" height="1080" transform="matrix(1, 0, 0, 1, 0, 0)" style="overflow: visible;"/>
  </clipPath>
  <g style="clip-path: url(#SVGID_00000063602917595011964140000013902313161278727094_);">
    <path class="st32" d="M196.51,419.12c-1.48-3.43-3.21-6.66-5.21-9.68c-20.31,13.6-46.98,29.94-80.83,46.68 c35.41-13.14,65.59-21.36,89.4-26.79C199.09,425.89,197.96,422.47,196.51,419.12z M190.18,479.84c-7,5.06-14.64,9.42-22.86,12.96 c-16.64,7.18-34.31,10.38-51.41,9.97h-0.17c0.49,0.17,0.95,0.38,1.45,0.52c0.43,0.17,0.87,0.35,1.3,0.49 c3.59,1.22,7.29,2.09,11.05,2.65c0.69,0.12,1.39,0.2,2.05,0.26c0.14,0.06,0.26,0.06,0.41,0.06c0.69,0.06,1.39,0.15,2.08,0.17 c0.75,0.06,1.5,0.12,2.29,0.15c9.08,0.38,18.31-1.22,27.05-5c2.11-0.9,4.17-1.95,6.16-3.08c0.67-0.38,1.3-0.76,1.97-1.16 c0.23-0.15,0.46-0.29,0.67-0.44c0.58-0.38,1.19-0.76,1.76-1.16c1.94-1.31,3.79-2.7,5.55-4.21c0.58-0.49,1.16-1.02,1.74-1.54 c0.55-0.52,1.13-1.05,1.65-1.57c0.55-0.55,1.1-1.1,1.62-1.66c1.04-1.1,2.05-2.24,3.01-3.43c0.98-1.16,1.91-2.38,2.72-3.63 c0.23-0.29,0.43-0.58,0.61-0.87L190.18,479.84z M85.85,478.64c2.84,4.3,6.13,8.2,9.81,11.6c18.98-7.88,51.56-22.93,70.56-40.46 C128.93,462.69,116.26,466.35,85.85,478.64z M201.58,441.1c-14.47,11.48-39.58,29.09-81.3,52.6 c29.28-6.71,47.07-13.46,78.11-29.64c0-0.03,0.03-0.03,0.03-0.03l0-0.09c0.29-0.84,0.52-1.66,0.78-2.5 c0.23-0.84,0.46-1.69,0.67-2.53c0.2-0.84,0.38-1.71,0.55-2.56c0.17-0.87,0.32-1.71,0.46-2.59c0.26-1.71,0.46-3.43,0.61-5.17v-0.09 c0.06-0.87,0.12-1.74,0.14-2.64c0.03-0.61,0.06-1.22,0.03-1.83c0.03-0.99,0.03-2.01,0-2.99 C201.63,441.07,201.61,441.1,201.58,441.1z M145.68,381.34c-0.55-0.09-1.1-0.15-1.65-0.17c-1.19-0.15-2.37-0.2-3.56-0.23 c-8.94-0.38-18.02,1.22-26.73,4.97c-1.53,0.67-3.04,1.37-4.48,2.18c-0.69,0.38-1.39,0.73-2.08,1.13c-1.36,0.78-2.66,1.6-3.96,2.47 c-0.67,0.44-1.3,0.87-1.91,1.34c-0.06,0.03-0.12,0.06-0.14,0.12c-0.61,0.44-1.19,0.9-1.79,1.37c-1.85,1.42-3.56,2.94-5.18,4.59 c-0.43,0.41-0.87,0.84-1.3,1.31c-0.29,0.26-0.52,0.52-0.78,0.81c-0.35,0.41-0.69,0.78-1.07,1.19c-1.01,1.13-1.97,2.33-2.86,3.55 c-0.46,0.61-0.9,1.22-1.33,1.83c-0.43,0.64-0.87,1.25-1.27,1.89c-0.43,0.64-0.84,1.28-1.19,1.92c-0.38,0.64-0.75,1.31-1.13,1.98 c-0.72,1.31-1.39,2.67-2.03,4.04c-0.35,0.76-0.67,1.51-0.98,2.27c11.49-12.82,26.18-23.22,42.91-30.43 c8.22-3.55,16.61-6.1,25.05-7.76C147.36,381.54,146.52,381.42,145.68,381.34z M75.44,443.5c-0.03,5,0.52,10.06,1.76,15.08 c29.86-13.72,41.23-20.43,76.23-38.71C127.6,421.68,94.16,435.13,75.44,443.5z M164.95,386.71 c-32.92,11.45-49.94,19.73-74.85,36.39c45.51-14.15,75.42-20.31,93.68-23.02C178.35,394.45,171.92,389.97,164.95,386.71z"/>
    <g>
      <path class="st1" d="M355.8,453.66c-3.59-0.58-6.63-2.42-9.52-4.98c-3.12-2.77-4.4-7.59-4.4-12.45v-50.32c0-2.71-3.02-5-5.73-5 h-7.39c-2.71,0-4.91,2.2-4.91,4.91v50.32c0,9.63,3.44,17.97,10.23,24.79c5.84,5.87,12.5,9.16,20.37,10.04 c0.19,0.02,0.38,0.03,0.56,0.03c2.71,0,4.92-2.21,4.92-4.92v-7.59C359.91,456.08,358.18,454.05,355.8,453.66z"/>
      <path class="st1" d="M648.7,453.66c-3.59-0.58-6.63-2.42-9.52-4.98c-3.12-2.77-4.4-7.59-4.4-12.45v-50.32c0-2.71-3.02-5-5.73-5 h-7.39c-2.71,0-4.91,2.2-4.91,4.91v50.32c0,9.63,3.44,17.97,10.23,24.79c5.84,5.87,12.5,9.16,20.37,10.04 c0.19,0.02,0.38,0.03,0.56,0.03c2.71,0,4.92-2.21,4.92-4.92v-7.59C652.81,456.08,651.08,454.05,648.7,453.66z"/>
      <path class="st1" d="M402.97,398.92c-9.9,0-18.47,3.55-25.48,10.57c-7.11,7.11-10.57,15.45-10.57,25.48 c0,10.04,3.46,18.37,10.57,25.48c7.11,7.11,15.45,10.57,25.48,10.57s18.37-3.46,25.48-10.57c7.01-7.01,10.57-15.58,10.57-25.48 c0-10.04-3.46-18.37-10.57-25.48C421.34,402.37,413.01,398.92,402.97,398.92z M415.86,447.85c-3.56,3.56-7.89,5.36-12.89,5.36 s-9.33-1.8-12.89-5.37c-3.56-3.55-5.36-7.89-5.36-12.88c0-5.07,1.8-9.44,5.36-13c3.56-3.56,7.89-5.36,12.89-5.36 c4.99,0,9.33,1.8,12.89,5.36c3.56,3.56,5.36,7.93,5.36,13C421.22,439.96,419.42,444.29,415.86,447.85z"/>
      <path class="st1" d="M605.6,432.06c-0.07-0.87-0.16-1.73-0.27-2.57c-0.25-1.78-0.61-3.5-1.12-5.18c-0.1-0.35-0.21-0.7-0.33-1.04 c-0.23-0.67-0.47-1.34-0.74-2c-1.76-4.29-4.42-8.22-8.03-11.83c-7.1-7.12-15.44-10.57-25.49-10.57c-3.58,0-7.02,0.47-10.32,1.42 l-0.27,0.09c-2.33,0.66-4.56,1.55-6.71,2.61c-0.01,0-0.03,0.01-0.04,0.02c-2.94,1.63-5.7,3.72-8.25,6.28 c-7.07,7.07-10.59,15.58-10.59,25.54c0,3.18,0.36,6.22,1.09,9.1c1.52,6.15,4.69,11.63,9.51,16.43 c6.16,6.16,13.41,9.62,21.78,10.4c0.94,0.09,1.89,0.15,2.82,0.18c0.31,0.01,0.61,0.01,0.93,0.01c0.55,0,1.1-0.01,1.64-0.04 c0.36-0.01,0.7-0.03,1.06-0.06c0.44-0.03,0.88-0.07,1.32-0.12c0.43-0.05,0.88-0.1,1.31-0.17c0.43-0.06,0.87-0.14,1.29-0.22 c0.43-0.08,0.87-0.17,1.29-0.26c0.38-0.08,0.74-0.17,1.11-0.28c0.33-0.08,0.65-0.17,0.97-0.27c0.44-0.12,0.89-0.26,1.32-0.4 c0.43-0.15,0.87-0.31,1.3-0.46c0.54-0.21,1.07-0.42,1.6-0.65c0.42-0.19,0.85-0.38,1.27-0.59c0.13-0.06,0.26-0.13,0.39-0.2 c1.41-0.7,2.8-1.5,4.16-2.41v3.06c0,1.69,1.37,3.06,3.06,3.06h9.96c1.69,0,3.06-1.37,3.06-3.06v-33.06 C605.69,433.89,605.66,432.97,605.6,432.06z M556.8,447.58c-3.57-3.57-5.31-7.75-5.31-12.75c0-5.09,1.74-9.31,5.31-12.88 c3.57-3.57,7.75-5.31,12.76-5.31c5,0,9.18,1.74,12.75,5.31c3.57,3.57,5.31,7.79,5.31,12.88c0,5-1.74,9.18-5.31,12.75 c-3.57,3.57-7.75,5.31-12.75,5.31C564.55,452.89,560.37,451.15,556.8,447.58z"/>
      <path class="st1" d="M521.34,426c-1.5-6.16-4.66-11.59-9.51-16.46c-6.66-6.66-14.4-10.11-23.61-10.52 c-0.61-0.03-1.22-0.04-1.85-0.04c-0.86,0-1.71,0.03-2.56,0.08c-0.36,0.02-0.73,0.05-1.09,0.09c-0.08,0.01-0.17,0.01-0.25,0.02 c-0.36,0.04-0.71,0.08-1.07,0.13c-0.28,0.03-0.54,0.07-0.82,0.12c-0.18,0.02-0.35,0.05-0.52,0.08c-0.05,0-0.1,0.01-0.16,0.03 c-0.68,0.11-1.36,0.25-2.02,0.4c-3.47,0.83-6.51,2.12-9.6,3.99v-18c0-2.79-2.25-5.04-5.04-5.04l-7.95,0.05 c-2.77,0-5.04,2.25-5.04,5.04V435c0,9.9,3.55,18.47,10.55,25.48c6.67,6.65,14.41,10.1,23.62,10.51c0.64,0.02,1.29,0.04,1.95,0.04 c0.47,0,0.96-0.01,1.42-0.03c0.27-0.01,0.53-0.02,0.79-0.04c0.31-0.02,0.59-0.04,0.84-0.06c0.03,0,0.08,0,0.14-0.01 c0.04,0,0.08,0,0.13-0.01c0.04,0,0.09-0.01,0.14-0.01c0,0,0.01,0,0.02,0c0.04-0.01,0.08-0.01,0.12-0.01c0.03,0,0.06,0,0.08-0.01 c0.08,0,0.15-0.01,0.22-0.02c0,0,0,0,0.01,0c0.02,0,0.05,0,0.07-0.01c0.04,0,0.08,0,0.12-0.01c0.06-0.01,0.12-0.01,0.18-0.02 c0.05-0.01,0.09-0.01,0.13-0.02c0.15-0.02,0.3-0.03,0.43-0.05c0.15-0.02,0.29-0.03,0.43-0.05l0.96-0.15 c1.02-0.16,2-0.37,2.99-0.6c0.34-0.08,0.66-0.17,1-0.26c0.43-0.12,0.86-0.25,1.28-0.37c5.15-1.7,9.78-4.62,13.98-8.82 c7-7,10.56-15.58,10.56-25.46C522.38,431.85,522.04,428.84,521.34,426z M504.55,436.4c-0.31,4.41-2.08,8.28-5.31,11.49 c-2,2-4.24,3.45-6.72,4.33c-0.07,0.03-0.14,0.05-0.21,0.07c-0.09,0.03-0.17,0.06-0.26,0.09c-0.18,0.06-0.37,0.12-0.55,0.17 c-1.63,0.47-3.34,0.71-5.14,0.71c-0.07,0-0.15,0-0.22-0.01c-0.28,0.01-0.54,0-0.81-0.02c-0.3-0.01-0.58-0.03-0.87-0.06 c-4.31-0.37-8.05-2.15-11.13-5.28c-3.51-3.56-5.32-7.88-5.32-12.88c0-4.98,1.81-9.32,5.32-12.88c0.71-0.71,1.45-1.35,2.22-1.91 c0.24-0.18,0.48-0.36,0.73-0.52c2.95-2,6.32-3.02,10.07-3.02c4.98,0,9.32,1.81,12.87,5.36c3.56,3.56,5.36,7.93,5.36,12.99 C504.6,435.48,504.58,435.94,504.55,436.4z"/>
      <path class="st1" d="M310.19,463.34c0.01-0.32,0-0.65,0-0.98l0-6.06v-56.93c0-0.25-0.2-0.45-0.45-0.45h-13.78 c-1.93,0-3.53,1.39-3.87,3.22c-0.04,0.23-0.07,0.47-0.07,0.71l0,0c0,0.34-0.37,0.56-0.67,0.39c-5.17-2.87-10.97-4.32-17.29-4.32 c-9.91,0-18.49,3.56-25.51,10.58c-7.12,7.12-10.57,15.46-10.57,25.5c0,5.76,1.23,11.14,3.64,15.96c0.35,0.7,0.72,1.4,1.13,2.09 c0.86,1.47,1.84,2.89,2.94,4.26c0.88,1.1,1.84,2.17,2.87,3.2c0.82,0.82,1.65,1.58,2.45,2.25c1.71,1.45,3.5,2.7,5.38,3.78 c1.08,0.62,2.2,1.18,3.34,1.67c4.41,1.91,9.2,2.88,14.35,2.88c4.94,0,9.78-1.02,14.28-2.96c1.18-0.51,2.35-1.09,3.48-1.73 c0.09-0.05,0.24-0.16,0.32-0.21v8.05c0,0.03,0,0.06-0.01,0.09c-0.36,2.03-1.12,3.96-2.15,5.73c-0.8,1.36-1.79,2.64-2.98,3.83 c-3.56,3.56-7.89,5.37-12.89,5.37c-4.99,0-9.33-1.8-12.89-5.37c-0.99-0.99-1.85-2.04-2.57-3.15c-0.28-0.43-0.76-0.68-1.27-0.68 h-16.25c-1.04,0-1.77,1.01-1.46,2c1.67,5.33,4.64,10.11,8.96,14.43c7.11,7.11,15.44,10.57,25.48,10.57 c10.04,0,18.37-3.45,25.48-10.57c4.78-4.78,7.95-10.28,9.49-16.43c0.63-2.52,1.02-5.16,1.1-7.9l0.01-7.97 C310.2,463.96,310.2,463.62,310.19,463.34z M291.74,438.29c-0.06,0.35-0.13,0.69-0.21,1.03c-0.59,2.52-1.73,4.83-3.42,6.91 c-0.28,0.36-0.59,0.7-0.9,1.05c-0.13,0.13-0.26,0.27-0.41,0.42c-2.86,2.9-6.29,4.61-10.22,5.1c-0.82,0.11-1.65,0.16-2.51,0.16 c-0.85,0-1.68-0.05-2.48-0.15c-3.96-0.48-7.33-2.18-10.26-5.13c-0.11-0.11-0.22-0.23-0.33-0.34l-0.07-0.08 c-0.31-0.33-0.6-0.66-0.88-1c-1.68-2.05-2.83-4.35-3.43-6.85c-0.09-0.38-0.17-0.76-0.24-1.15c-0.18-1.02-0.28-2.12-0.28-3.26 c0-4.91,1.76-9.18,5.23-12.69c3.51-3.55,7.68-5.27,12.73-5.27s9.22,1.72,12.73,5.27c3.47,3.51,5.23,7.78,5.23,12.69 C292.03,436.14,291.94,437.24,291.74,438.29z"/>
    </g>
  </g>
</svg>